<!-- Created with Inkscape (http://www.inkscape.org/) -->
<svg xmlns:rdf="http://www.w3.org/1999/02/22-rdf-syntax-ns#" xmlns="http://www.w3.org/2000/svg" xml:space="preserve" height="96.954" width="713.56" version="1.1" xmlns:cc="http://creativecommons.org/ns#" xmlns:dc="http://purl.org/dc/elements/1.1/"><metadata><rdf:RDF><cc:Work rdf:about=""><dc:format>image/svg+xml</dc:format><dc:type rdf:resource="http://purl.org/dc/dcmitype/StillImage"/><dc:title/></cc:Work></rdf:RDF></metadata><defs><clipPath id="clipPath3138" clipPathUnits="userSpaceOnUse"><path d="m19.245,435.87,573.88,0,0-79.866-573.88,0,0,79.866z"/></clipPath><clipPath id="clipPath3144" clipPathUnits="userSpaceOnUse"><path d="m19,356,574,0,0,80-574,0,0-80z"/></clipPath><clipPath id="clipPath3154" clipPathUnits="userSpaceOnUse"><path d="m19,356,574,0,0,80-574,0,0-80z"/></clipPath></defs><g transform="matrix(1.25,0,0,-1.25,-24.056238,544.83225)"><g clip-path="url(#clipPath3138)"><g clip-path="url(#clipPath3144)"><path fill-rule="evenodd" fill="#155d6e" d="m52.837,407.72c-0.0245-0.1715-0.049-0.343-0.06533-0.5104l-0.0082-0.0408c-0.02041-0.1878-0.04899-0.3797-0.06941-0.5717v-0.0245c-0.01633-0.1959-0.03675-0.3919-0.05308-0.5879v-0.0164c-0.01633-0.2-0.02858-0.4001-0.03675-0.6002l-0.005-0.02c-0.0082-0.2001-0.01225-0.4002-0.02042-0.6002v-0.0123c-0.0041-0.2041-0.0082-0.4124-0.0082-0.6165,0-3.3727,0.46139-6.0226,1.7149-8.938,2.4866-1.3719,5.1937-1.0003,6.3329,1.225l0.52672,1.5189c-0.76763,1.915-1.1882,4.0055-1.1882,6.1941,0,9.2278,7.4803,16.708,16.708,16.708,9.2278,0,16.708-7.4803,16.708-16.708,0-9.2238-7.4803-16.708-16.708-16.708-0.48181,0-0.95545,0.0164-1.425,0.0572l4.7609,13.842c0.31848,0.5839,0.49406,1.2576,0.49406,1.9721,0,2.307-1.866,4.173-4.1689,4.173-1.6537,0-3.0828-0.9677-3.7565-2.3641l-0.04083,0.0122c-5.13-14.89-10.36-29.7-15.427-44.44l-0.04491,0.0122c-0.67372-1.4005-2.1069-2.36-3.7606-2.36-2.3029,0-4.173,1.866-4.173,4.1688,0,0.7105,0.17966,1.3842,0.49814,1.9681l2.458,7.1455-8.5541,3.883-21.551,9.7913c-1.0739,0.6697-1.9313,1.6496-2.4458,2.8215-0.342,0.77-0.53,1.63-0.53,2.53,0,0.588,0.08166,1.1556,0.23274,1.6945,0.40423,1.474,1.3393,2.7316,2.5805,3.5564l21.714,9.8648,1.4781,0.6656,4.863,1.9844c1.3678,0.6288,2.36,0.4124,2.9684-0.6574"/></g></g><g clip-path="url(#clipPath3154)"><path fill-rule="evenodd" fill="#1eb4d0" d="m108.32,406.55,1.8251-0.8248,21.91-9.9546c1.6251-1.1351,2.6867-3.0256,2.6867-5.1611,0-2.1885-1.1187-4.1239-2.8214-5.2468l-41.786-18.99c-7.7702-4.3608-15.34-4.5486-22.755-1.7354l5.3979,15.687c1.2617-0.2042,2.5601-0.3103,3.879-0.3103,13.307,0,24.094,10.792,24.094,24.094,0,0.2041-0.004,0.4124-0.004,0.6165l-0.004,0.0123c-0.008,0.196-0.0122,0.396-0.0245,0.592v0.0368c-0.008,0.1878-0.0204,0.3797-0.0367,0.5675l-0.004,0.0613c-0.0163,0.1756-0.0286,0.3511-0.0449,0.5267l-0.008,0.1021c-0.0204,0.1592-0.0408,0.3225-0.0612,0.4859-0.004,0.0449-0.008,0.0939-0.0164,0.147-0.0204,0.1429-0.0408,0.2858-0.0612,0.4246-0.0122,0.0694-0.0204,0.1347-0.0286,0.196-0.0204,0.1307-0.0449,0.2531-0.0612,0.3716-0.0164,0.0898-0.0327,0.1755-0.0449,0.2654-0.0205,0.098-0.0409,0.196-0.0572,0.2939-0.0245,0.1103-0.049,0.2165-0.0653,0.3267-0.0205,0.0735-0.0368,0.1511-0.0572,0.2287-0.0286,0.1306-0.0572,0.2613-0.0898,0.3919-0.0123,0.0531-0.0245,0.1021-0.0368,0.1552-0.0367,0.147-0.06939,0.2899-0.11022,0.4328-2.7479,10.285-12.131,17.86-23.278,17.86-7.6722,0-14.511-3.5891-18.925-9.1789-1.5067-1.67-3.2747-1.866-5.2591-0.837-1.8129,1.1228-2.0783,2.7234-1.4781,4.6017,5.7694,7.9171,15.116,13.066,25.662,13.066,16.712,0,30.411-12.923,31.652-29.317"/><g transform="matrix(4.08312,0,0,4.08312,19,356)"><text transform="matrix(1,0,0,-1,32.4175,3.6118)"><tspan style="writing-mode:lr-tb;" fill-rule="nonzero" font-size="17.19809914px" font-variant="normal" y="0" x="0 4.1275439 12.778189 22.667095 31.782089" font-family="Museo Sans" fill="#155d6e">label</tspan></text>
</g><g transform="matrix(4.08312,0,0,4.08312,19,356)"><text transform="matrix(1,0,0,-1,68.32713,3.6118)"><tspan style="writing-mode:lr-tb;" fill-rule="nonzero" font-size="17.19809914px" font-variant="normal" y="0" x="0 8.4459867 17.545502 23.549358 33.835541 37.758427 46.72036 57.006542" font-family="Museo Sans" fill="#1eb4d0">zero.com</tspan></text>
</g></g></g></svg>
