<?xml version="1.0" encoding="UTF-8" standalone="no"?>
<!-- Created with Inkscape (http://www.inkscape.org/) -->
<svg id="svg2" xmlns:rdf="http://www.w3.org/1999/02/22-rdf-syntax-ns#" xmlns="http://www.w3.org/2000/svg" xml:space="preserve" height="96.924" width="709.56" version="1.1" xmlns:cc="http://creativecommons.org/ns#" xmlns:dc="http://purl.org/dc/elements/1.1/"><metadata id="metadata4"><rdf:RDF><cc:Work rdf:about=""><dc:format>image/svg+xml</dc:format><dc:type rdf:resource="http://purl.org/dc/dcmitype/StillImage"/><dc:title/></cc:Work></rdf:RDF></metadata><defs id="defs6"><clipPath id="clipPath3138" clipPathUnits="userSpaceOnUse"><path id="path9" d="m19.245,435.87,573.88,0,0-79.866-573.88,0,0,79.866z"/></clipPath><clipPath id="clipPath3144" clipPathUnits="userSpaceOnUse"><path id="path12" d="m19,356,574,0,0,80-574,0,0-80z"/></clipPath>
</defs><g id="g19" transform="matrix(1.25,0,0,-1.25,-24.05625,544.81837)" clip-path="url(#clipPath3138)"><g id="g21" clip-path="url(#clipPath3144)"><path id="path23" d="m52.837,407.72c-0.0245-0.1715-0.049-0.343-0.06533-0.5104l-0.0082-0.0408c-0.02041-0.1878-0.04899-0.3797-0.06941-0.5717v-0.0245c-0.01633-0.1959-0.03675-0.3919-0.05308-0.5879v-0.0164c-0.01633-0.2-0.02858-0.4001-0.03675-0.6002l-0.005-0.02c-0.0082-0.2001-0.01225-0.4002-0.02042-0.6002v-0.0123c-0.0041-0.2041-0.0082-0.4124-0.0082-0.6165,0-3.3727,0.46139-6.0226,1.7149-8.938,2.4866-1.3719,5.1937-1.0003,6.3329,1.225l0.52672,1.5189c-0.76763,1.915-1.1882,4.0055-1.1882,6.1941,0,9.2278,7.4803,16.708,16.708,16.708,9.2278,0,16.708-7.4803,16.708-16.708,0-9.2238-7.4803-16.708-16.708-16.708-0.48181,0-0.95545,0.0164-1.425,0.0572l4.7609,13.842c0.31848,0.5839,0.49406,1.2576,0.49406,1.9721,0,2.307-1.866,4.173-4.1689,4.173-1.6537,0-3.0828-0.9677-3.7565-2.3641l-0.04083,0.0122c-5.13-14.89-10.36-29.7-15.427-44.44l-0.04491,0.0122c-0.67372-1.4005-2.1069-2.36-3.7606-2.36-2.3029,0-4.173,1.866-4.173,4.1688,0,0.7105,0.17966,1.3842,0.49814,1.9681l2.458,7.1455-8.5541,3.883-21.551,9.7913c-1.0739,0.6697-1.9313,1.6496-2.4458,2.8215-0.342,0.77-0.53,1.63-0.53,2.53,0,0.588,0.08166,1.1556,0.23274,1.6945,0.40423,1.474,1.3393,2.7316,2.5805,3.5564l21.714,9.8648,1.4781,0.6656,4.863,1.9844c1.3678,0.6288,2.36,0.4124,2.9684-0.6574" fill-rule="evenodd" fill="#155d6e"/></g></g><path id="path27" fill-rule="evenodd" fill="#1eb4d0" d="m111.34,36.631,2.2814,1.031,27.388,12.443c2.0314,1.4189,3.3584,3.782,3.3584,6.4514,0,2.7356-1.3984,5.1549-3.5268,6.5585l-52.232,23.738c-9.7128,5.451-19.175,5.6858-28.444,2.1692l6.7474-19.609c1.5771,0.25525,3.2001,0.38788,4.8488,0.38788,16.634,0,30.118-13.49,30.118-30.118,0-0.25512-0.005-0.5155-0.005-0.77062l-0.005-0.01537c-0.01-0.245-0.0152-0.495-0.0306-0.74v-0.046c-0.01-0.23475-0.0255-0.47462-0.0459-0.70938l-0.005-0.07662c-0.0204-0.2195-0.0357-0.43888-0.0561-0.65838l-0.01-0.12762c-0.0255-0.199-0.051-0.40312-0.0765-0.60738-0.005-0.05613-0.01-0.11738-0.0205-0.18375-0.0255-0.17862-0.051-0.35725-0.0765-0.53075-0.0153-0.08675-0.0255-0.16838-0.0358-0.245-0.0255-0.16338-0.0561-0.31638-0.0765-0.4645-0.0205-0.11225-0.0409-0.21938-0.0561-0.33175-0.0256-0.1225-0.0511-0.245-0.0715-0.36738-0.0306-0.13788-0.0613-0.27062-0.0816-0.40838-0.0256-0.09188-0.046-0.18888-0.0715-0.28588-0.0358-0.16325-0.0715-0.32662-0.11225-0.48988-0.0154-0.06638-0.0306-0.12762-0.046-0.194-0.0459-0.18375-0.0867-0.36238-0.13777-0.541-3.4349-12.856-15.164-22.325-29.098-22.325-9.5902,0-18.139,4.4864-23.656,11.474-1.8834,2.0875-4.0934,2.3325-6.5739,1.0462-2.2661-1.4035-2.5979-3.4042-1.8476-5.7521,7.224-9.8949,18.907-16.331,32.09-16.331,20.89,0,38.014,16.154,39.565,36.646"/><path id="path3047" fill-rule="nonzero" fill="#155d6e" d="m167.29,69.271c0,11.148,7.11,12.464,11.938,12.464,1.4922,0,2.8089-0.17556,2.8089-0.17556v-7.5489s-0.70222,0.08778-1.4922,0.08778c-2.6333,0-4.74-0.96556-4.74-6.32v-48.365h-8.5144v49.858"/><path id="path3049" fill-rule="nonzero" fill="#155d6e" d="m185.29,68.92c0,8.8655,7.4611,13.518,15.098,13.518,10.621,0,14.22-8.7777,14.22-8.7777h0.17557s-0.17557,1.4922-0.17557,3.5111v4.2133h7.9v-28.089c0-11.235-6.32-17.38-17.555-17.38-10.182,0-16.59,5.2666-16.59,5.2666l3.5111,6.2322s5.53-4.3011,12.377-4.3011c5.6178,0,9.7433,2.4578,9.7433,9.7433v0.79h-1.9311c-7.4611,0-26.772,0.61446-26.772,15.273m8.6022-0.43888c0-7.9877,11.587-8.4266,17.994-8.4266h2.1944v1.4044c0,6.5833-4.6522,14.132-11.85,14.132-5.53,0-8.3388-3.5111-8.3388-7.11"/><path id="path3051" fill-rule="nonzero" fill="#155d6e" d="m233.04,81.384,8.0755,0,0-3.2478c0-1.9311-0.17558-3.3355-0.17558-3.3355h0.17558s4.0378,7.6366,13.957,7.6366c11.674,0,20.189-9.1289,20.189-23.261,0-13.781-7.5489-23.261-19.487-23.261-10.446,0-14.22,7.5489-14.22,7.5489h-0.17557s0.17557-1.58,0.17557-3.7744v-20.277h-8.5144v61.971m8.2511-22.032c0-11.323,6.1444-15.975,12.816-15.975,7.3733,0,12.552,6.2322,12.552,15.888,0,10.094-5.7933,15.888-12.815,15.888-8.4266,0-12.552-7.9-12.552-15.8"/><path id="path3053" fill-rule="nonzero" fill="#155d6e" d="m280.44,59.176c0,13.167,9.5678,23.261,23.524,23.261,10.621,0,17.204-6.32,17.204-6.32l-3.5111-6.2322s-5.53,5.1789-13.167,5.1789c-7.9,0-14.834-4.9155-15.273-14.659h32.39s0.26331-2.5455,0.26331-3.6866c0-11.499-6.6711-20.803-19.223-20.803-12.64,0-22.208,9.1289-22.208,23.261m9.0411-5.1789c1.2289-7.2855,6.4955-11.323,12.991-11.323,5.7055,0,10.446,3.6867,10.709,11.323h-23.7"/><path id="path3055" fill-rule="nonzero" fill="#155d6e" d="m329.51,69.271c0,11.148,7.11,12.464,11.938,12.464,1.4922,0,2.8089-0.17556,2.8089-0.17556v-7.5489s-0.70222,0.08778-1.4922,0.08778c-2.6333,0-4.74-0.96556-4.74-6.32v-48.365h-8.5144v49.858"/><path id="path3071" d="m347.85,81.384,38.359,0,0-7.2855-22.559,0c-2.8967,0-4.3889,0.17555-4.3889,0.17555v-0.17555s1.9311-1.7556,3.7744-4.0378l22.383-28.177v-4.9155h-36.603v7.2855h20.803c2.8966,0,4.3011-0.17556,4.3011-0.17556v0.17556s-1.7556,1.7556-3.6866,4.1255l-22.383,28.089v4.9155" fill-rule="nonzero" fill="#1eb4d0"/><path id="path3073" d="m391.13,59.176c0,13.167,9.5678,23.261,23.524,23.261,10.621,0,17.204-6.32,17.204-6.32l-3.5111-6.2322s-5.53,5.1789-13.167,5.1789c-7.9,0-14.834-4.9155-15.273-14.659h32.39s0.26333-2.5455,0.26333-3.6866c0-11.499-6.6711-20.803-19.223-20.803-12.64,0-22.208,9.1289-22.208,23.261m9.0411-5.1789c1.2289-7.2855,6.4955-11.323,12.991-11.323,5.7055,0,10.446,3.6867,10.709,11.323h-23.7" fill-rule="nonzero" fill="#1eb4d0"/><path id="path3075" d="m440.65,81.384,8.5144,0,0-18.17c0-2.7211,0.26334-5.4422,1.0533-7.9877,2.0189-6.5833,7.0222-10.446,12.464-10.446,1.3167,0,2.4578,0.26333,2.4578,0.26333v-8.4266s-1.0533-0.17556-2.1944-0.17556c-6.8466,0-12.026,5.0911-14.044,11.587h-0.17555s0.17555-1.4922,0.17555-3.3355v-7.7244h-8.2511v44.415" fill-rule="nonzero" fill="#1eb4d0"/><path id="path3077" d="m468.05,59.089c0,13.518,10.709,23.349,23.963,23.349s23.963-9.8311,23.963-23.349c0-13.43-10.709-23.173-23.963-23.173s-23.963,9.7433-23.963,23.173m8.69,0c0-9.2166,6.9344-15.8,15.273-15.8,8.4266,0,15.273,6.5833,15.273,15.8,0,9.3044-6.8466,15.975-15.273,15.975-8.3388,0-15.273-6.6711-15.273-15.975" fill-rule="nonzero" fill="#1eb4d0"/><path id="path3079" d="m523.79,81.384,8.9533,0,0-9.0411-8.9533,0,0,9.0411" fill-rule="nonzero" fill="#1eb4d0"/><path id="path3081" d="m540.65,59.176c0,13.342,9.8311,23.261,23.788,23.261,11.587,0,17.731-7.11,17.731-7.11l-3.4233-6.2322s-5.4422,5.9689-13.693,5.9689c-9.2166,0-15.712-6.9344-15.712-15.975,0-9.1288,6.4955-15.8,15.449-15.8,7.5488,0,12.289,5.0911,12.289,5.0911l4.0378-5.9689s-5.53-6.4955-16.678-6.4955c-13.957,0-23.788,10.094-23.788,23.261" fill-rule="nonzero" fill="#1eb4d0"/><path id="path3083" d="m586.31,59.089c0,13.518,10.709,23.349,23.963,23.349s23.963-9.8311,23.963-23.349c0-13.43-10.709-23.173-23.963-23.173s-23.963,9.7433-23.963,23.173m8.69,0c0-9.2166,6.9344-15.8,15.273-15.8,8.4266,0,15.273,6.5833,15.273,15.8,0,9.3044-6.8466,15.975-15.273,15.975-8.3388,0-15.273-6.6711-15.273-15.975" fill-rule="nonzero" fill="#1eb4d0"/><path id="path3085" d="m642.06,81.384,8.5144,0,0-20.277c0-2.0189,0.0878-4.0378,0.52667-5.7933,1.6678-6.32,6.2322-11.674,12.728-11.674,6.8466,0,7.7244,5.3544,7.7244,11.148v26.597h8.5144v-20.277c0-2.2822,0.17556-4.3011,0.61445-6.1444,1.58-6.0566,6.2322-11.323,12.464-11.323,6.6711,0,7.9,4.9155,7.9,11.148v26.597h8.5144v-28.44c0-11.323-4.6522-17.029-14.659-17.029-7.1977,0-13.342,4.74-15.8,10.094h-0.17555c-1.4922-6.6711-5.8811-10.094-13.342-10.094-6.9344,0-13.167,5.0033-15.273,10.182h-0.17555s0.17555-1.4922,0.17555-3.2478v-5.8811h-8.2511v44.415" fill-rule="nonzero" fill="#1eb4d0"/><flowRoot id="flowRoot3038" style="letter-spacing:0px;word-spacing:0px;" line-height="125%" font-weight="normal" xml:space="preserve" font-size="40px" transform="translate(-1.2e-5,-0.013885)" font-style="normal" font-family="Sans" fill="#000000"><flowRegion id="flowRegion3040"><rect id="rect3042" y="-69.248" width="624.92" x="148.47" height="241.55"/></flowRegion><flowPara id="flowPara3044"/></flowRoot></svg>
